<?xml version="1.0" encoding="UTF-8"?>
<!DOCTYPE svg PUBLIC "-//W3C//DTD SVG 1.1//EN" "http://www.w3.org/Graphics/SVG/1.1/DTD/svg11.dtd">
<svg version="1.2" width="100mm" height="100mm" viewBox="0 0 10000 10000" preserveAspectRatio="xMidYMid" fill-rule="evenodd" stroke-width="28.222" stroke-linejoin="round" xmlns="http://www.w3.org/2000/svg" xmlns:ooo="http://xml.openoffice.org/svg/export" xmlns:xlink="http://www.w3.org/1999/xlink" xmlns:presentation="http://sun.com/xmlns/staroffice/presentation" xmlns:smil="http://www.w3.org/2001/SMIL20/" xmlns:anim="urn:oasis:names:tc:opendocument:xmlns:animation:1.0" xml:space="preserve">
 <defs class="ClipPathGroup">
  <clipPath id="presentation_clip_path" clipPathUnits="userSpaceOnUse">
   <rect x="0" y="0" width="10000" height="10000"/>
  </clipPath>
  <clipPath id="presentation_clip_path_shrink" clipPathUnits="userSpaceOnUse">
   <rect x="10" y="10" width="9980" height="9980"/>
  </clipPath>
 </defs>
 <defs class="TextShapeIndex">
  <g ooo:slide="id1" ooo:id-list="id3 id4 id5 id6 id7 id8 id9 id10 id11 id12 id13"/>
 </defs>
 <defs class="EmbeddedBulletChars">
  <g id="bullet-char-template-57356" transform="scale(0.00048828125,-0.00048828125)">
   <path d="M 580,1141 L 1163,571 580,0 -4,571 580,1141 Z"/>
  </g>
  <g id="bullet-char-template-57354" transform="scale(0.00048828125,-0.00048828125)">
   <path d="M 8,1128 L 1137,1128 1137,0 8,0 8,1128 Z"/>
  </g>
  <g id="bullet-char-template-10146" transform="scale(0.00048828125,-0.00048828125)">
   <path d="M 174,0 L 602,739 174,1481 1456,739 174,0 Z M 1358,739 L 309,1346 659,739 1358,739 Z"/>
  </g>
  <g id="bullet-char-template-10132" transform="scale(0.00048828125,-0.00048828125)">
   <path d="M 2015,739 L 1276,0 717,0 1260,543 174,543 174,936 1260,936 717,1481 1274,1481 2015,739 Z"/>
  </g>
  <g id="bullet-char-template-10007" transform="scale(0.00048828125,-0.00048828125)">
   <path d="M 0,-2 C -7,14 -16,27 -25,37 L 356,567 C 262,823 215,952 215,954 215,979 228,992 255,992 264,992 276,990 289,987 310,991 331,999 354,1012 L 381,999 492,748 772,1049 836,1024 860,1049 C 881,1039 901,1025 922,1006 886,937 835,863 770,784 769,783 710,716 594,584 L 774,223 C 774,196 753,168 711,139 L 727,119 C 717,90 699,76 672,76 641,76 570,178 457,381 L 164,-76 C 142,-110 111,-127 72,-127 30,-127 9,-110 8,-76 1,-67 -2,-52 -2,-32 -2,-23 -1,-13 0,-2 Z"/>
  </g>
  <g id="bullet-char-template-10004" transform="scale(0.00048828125,-0.00048828125)">
   <path d="M 285,-33 C 182,-33 111,30 74,156 52,228 41,333 41,471 41,549 55,616 82,672 116,743 169,778 240,778 293,778 328,747 346,684 L 369,508 C 377,444 397,411 428,410 L 1163,1116 C 1174,1127 1196,1133 1229,1133 1271,1133 1292,1118 1292,1087 L 1292,965 C 1292,929 1282,901 1262,881 L 442,47 C 390,-6 338,-33 285,-33 Z"/>
  </g>
  <g id="bullet-char-template-9679" transform="scale(0.00048828125,-0.00048828125)">
   <path d="M 813,0 C 632,0 489,54 383,161 276,268 223,411 223,592 223,773 276,916 383,1023 489,1130 632,1184 813,1184 992,1184 1136,1130 1245,1023 1353,916 1407,772 1407,592 1407,412 1353,268 1245,161 1136,54 992,0 813,0 Z"/>
  </g>
  <g id="bullet-char-template-8226" transform="scale(0.00048828125,-0.00048828125)">
   <path d="M 346,457 C 273,457 209,483 155,535 101,586 74,649 74,723 74,796 101,859 155,911 209,963 273,989 346,989 419,989 480,963 531,910 582,859 608,796 608,723 608,648 583,586 532,535 482,483 420,457 346,457 Z"/>
  </g>
  <g id="bullet-char-template-8211" transform="scale(0.00048828125,-0.00048828125)">
   <path d="M -4,459 L 1135,459 1135,606 -4,606 -4,459 Z"/>
  </g>
  <g id="bullet-char-template-61548" transform="scale(0.00048828125,-0.00048828125)">
   <path d="M 173,740 C 173,903 231,1043 346,1159 462,1274 601,1332 765,1332 928,1332 1067,1274 1183,1159 1299,1043 1357,903 1357,740 1357,577 1299,437 1183,322 1067,206 928,148 765,148 601,148 462,206 346,322 231,437 173,577 173,740 Z"/>
  </g>
 </defs>
 <defs class="TextEmbeddedBitmaps"/>
 <g>
  <g id="id2" class="Master_Slide">
   <g id="bg-id2" class="Background"/>
   <g id="bo-id2" class="BackgroundObjects"/>
  </g>
 </g>
 <g class="SlideGroup">
  <g>
   <g id="container-id1">
    <g id="id1" class="Slide" clip-path="url(#presentation_clip_path)">
     <g class="Page">
      <g class="com.sun.star.drawing.CustomShape">
       <g id="id3">
        <rect class="BoundingBox" stroke="none" fill="none" x="-1" y="-1" width="10004" height="10004"/>
        <g>
         <defs>
          <linearGradient id="gradient1" x1="1585" y1="-915" x2="8415" y2="10915" gradientUnits="userSpaceOnUse">
           <stop offset="0" style="stop-color:rgb(255,255,255)"/>
           <stop offset="1" style="stop-color:rgb(238,238,238)"/>
          </linearGradient>
         </defs>
         <path style="fill:url(#gradient1)" d="M 5000,0 L 5523,25 6029,99 6514,218 6977,383 7416,589 7828,835 8211,1118 8563,1437 8882,1789 9165,2172 9411,2584 9617,3023 9782,3486 9901,3971 9975,4477 10000,5000 9975,5523 9901,6029 9782,6514 9617,6977 9411,7416 9165,7828 8882,8211 8563,8563 8211,8882 7828,9165 7416,9411 6977,9617 6514,9782 6029,9901 5523,9975 5000,10000 4477,9975 3971,9901 3486,9782 3023,9617 2584,9411 2172,9165 1789,8882 1437,8563 1118,8211 835,7828 589,7416 383,6977 218,6514 99,6029 25,5523 0,5000 25,4477 99,3971 218,3486 383,3023 589,2584 835,2172 1118,1789 1437,1437 1789,1118 2172,835 2584,589 3023,383 3486,218 3971,99 4477,25 5000,0 Z"/>
        </g>
        <path fill="none" stroke="rgb(238,238,238)" d="M 5000,0 C 7835,0 10000,2165 10000,5000 10000,7835 7835,10000 5000,10000 2165,10000 0,7835 0,5000 0,2165 2165,0 5000,0 Z"/>
        <path fill="none" stroke="rgb(238,238,238)" d="M 0,0 L 0,0 Z"/>
        <path fill="none" stroke="rgb(238,238,238)" d="M 10001,10001 L 10001,10001 Z"/>
       </g>
      </g>
      <g class="com.sun.star.drawing.CustomShape">
       <g id="id4">
        <rect class="BoundingBox" stroke="none" fill="none" x="800" y="2799" width="6102" height="6103"/>
        <g>
         <defs>
          <linearGradient id="gradient2" x1="1766" y1="2241" x2="5934" y2="9459" gradientUnits="userSpaceOnUse">
           <stop offset="0" style="stop-color:rgb(0,89,157)"/>
           <stop offset="1" style="stop-color:rgb(0,61,115)"/>
          </linearGradient>
         </defs>
         <path style="fill:url(#gradient2)" d="M 3850,2800 L 4169,2815 4477,2860 4774,2933 5056,3033 5324,3159 5575,3309 5809,3482 6023,3677 6218,3891 6391,4125 6541,4376 6667,4644 6767,4926 6840,5223 6885,5531 6900,5850 6885,6169 6840,6477 6767,6774 6667,7056 6541,7324 6391,7575 6218,7809 6023,8023 5809,8218 5575,8391 5324,8541 5056,8667 4774,8767 4477,8840 4169,8885 3850,8900 3531,8885 3223,8840 2926,8767 2644,8667 2376,8541 2125,8391 1891,8218 1677,8023 1482,7809 1309,7575 1159,7324 1033,7056 933,6774 860,6477 815,6169 800,5850 815,5531 860,5223 933,4926 1033,4644 1159,4376 1309,4125 1482,3891 1677,3677 1891,3482 2125,3309 2376,3159 2644,3033 2926,2933 3223,2860 3531,2815 3850,2800 Z M 3849,3204 L 4126,3217 4393,3256 4650,3320 4895,3406 5127,3516 5345,3646 5547,3796 5734,3964 5902,4151 6052,4353 6182,4571 6292,4803 6378,5048 6442,5305 6481,5572 6494,5849 6481,6126 6442,6393 6378,6650 6292,6895 6182,7127 6052,7345 5902,7547 5734,7734 5547,7902 5345,8052 5127,8182 4895,8292 4650,8378 4393,8442 4126,8481 3849,8494 3572,8481 3305,8442 3048,8378 2803,8292 2571,8182 2353,8052 2151,7902 1964,7734 1796,7547 1646,7345 1516,7127 1406,6895 1320,6650 1256,6393 1217,6126 1204,5849 1217,5572 1256,5305 1320,5048 1406,4803 1516,4571 1646,4353 1796,4151 1964,3964 2151,3796 2353,3646 2571,3516 2803,3406 3048,3320 3305,3256 3572,3217 3849,3204 Z"/>
        </g>
       </g>
      </g>
      <g class="com.sun.star.drawing.PolyPolygonShape">
       <g id="id5">
        <rect class="BoundingBox" stroke="none" fill="none" x="6500" y="399" width="2602" height="3602"/>
        <g>
         <defs>
          <linearGradient id="gradient3" x1="6912" y1="162" x2="8688" y2="3238" gradientUnits="userSpaceOnUse">
           <stop offset="0" style="stop-color:rgb(0,89,157)"/>
           <stop offset="1" style="stop-color:rgb(0,61,115)"/>
          </linearGradient>
         </defs>
         <path style="fill:url(#gradient3)" d="M 8800,400 L 6900,2299 6900,1200 6500,1600 6500,3000 7900,3000 8300,2600 7200,2599 9100,700 8800,400 Z"/>
        </g>
       </g>
      </g>
      <g class="com.sun.star.drawing.PolyPolygonShape">
       <g id="id6">
        <rect class="BoundingBox" stroke="none" fill="none" x="5688" y="2561" width="3814" height="3240"/>
        <g>
         <defs>
          <linearGradient id="gradient4" x1="6690" y1="3249" x2="8498" y2="6379" gradientUnits="userSpaceOnUse">
           <stop offset="0" style="stop-color:rgb(0,89,157)"/>
           <stop offset="1" style="stop-color:rgb(0,61,115)"/>
          </linearGradient>
         </defs>
         <path style="fill:url(#gradient4)" d="M 5799,5739 L 8803,4935 8304,5800 8850,5654 9500,4528 8288,3828 7742,3974 8694,4525 5689,5329 5799,5739 Z"/>
        </g>
       </g>
      </g>
      <g class="com.sun.star.drawing.ClosedBezierShape">
       <g id="id7">
        <rect class="BoundingBox" stroke="none" fill="none" x="-3100" y="3500" width="2384" height="3541"/>
        <path fill="rgb(0,0,0)" stroke="none" d="M -819,4320 C -819,4559 -890,4749 -1033,4890 -1176,5032 -1353,5128 -1561,5179 L -1561,5193 C -1288,5229 -1079,5315 -934,5450 -789,5584 -717,5764 -717,5989 -717,6189 -767,6367 -864,6527 -962,6686 -1113,6812 -1317,6902 -1521,6995 -1785,7040 -2106,7040 -2480,7040 -2811,6978 -3100,6851 L -3100,6236 C -2951,6309 -2797,6364 -2637,6404 -2476,6442 -2325,6461 -2184,6461 -1923,6461 -1741,6417 -1636,6326 -1531,6237 -1479,6110 -1479,5945 -1479,5853 -1503,5773 -1551,5705 -1599,5638 -1684,5587 -1804,5553 -1925,5519 -2093,5502 -2308,5502 L -2569,5502 -2569,4943 -2304,4943 C -2092,4943 -1930,4923 -1819,4883 -1708,4842 -1633,4788 -1592,4719 -1552,4650 -1533,4570 -1533,4480 -1533,4357 -1569,4262 -1646,4192 -1721,4123 -1847,4089 -2024,4089 -2188,4089 -2331,4117 -2453,4175 -2576,4233 -2677,4289 -2757,4340 L -3096,3837 C -2960,3741 -2801,3661 -2620,3596 -2439,3533 -2222,3500 -1972,3500 -1618,3500 -1337,3572 -1129,3715 -922,3858 -819,4059 -819,4320 Z"/>
       </g>
      </g>
      <g class="com.sun.star.drawing.ClosedBezierShape">
       <g id="id8">
        <rect class="BoundingBox" stroke="none" fill="none" x="-2780" y="-673" width="2482" height="3874"/>
        <path fill="rgb(0,0,0)" stroke="none" d="M -416,259 C -416,512 -487,713 -630,862 -772,1011 -961,1110 -1197,1159 L -1197,1180 C -898,1216 -674,1311 -524,1466 -375,1621 -300,1824 -300,2074 -300,2296 -351,2491 -453,2661 -555,2830 -712,2962 -925,3057 -1138,3152 -1411,3200 -1746,3200 -1943,3200 -2125,3185 -2294,3155 -2463,3125 -2625,3071 -2780,2994 L -2780,2560 C -2621,2642 -2451,2703 -2268,2746 -2085,2788 -1909,2809 -1740,2809 -1403,2809 -1159,2743 -1010,2611 -860,2478 -785,2296 -785,2063 -785,1827 -878,1657 -1062,1553 -1247,1449 -1506,1397 -1841,1397 L -2205,1397 -2205,1001 -1835,1001 C -1526,1001 -1291,936 -1131,806 -971,677 -891,505 -891,291 -891,109 -952,-32 -1076,-132 -1199,-232 -1366,-281 -1577,-281 -1781,-281 -1955,-252 -2099,-192 -2243,-133 -2386,-57 -2526,34 L -2759,-281 C -2625,-387 -2459,-479 -2260,-556 -2061,-634 -1835,-672 -1582,-672 -1188,-672 -895,-585 -704,-409 -512,-234 -416,-11 -416,259 Z"/>
       </g>
      </g>
      <g class="com.sun.star.drawing.PolyPolygonShape">
       <g id="id9">
        <rect class="BoundingBox" stroke="none" fill="none" x="-1" y="-1" width="3" height="3"/>
        <path fill="rgb(255,255,255)" stroke="none" d="M 0,0 L 0,0 Z"/>
        <path fill="none" stroke="rgb(238,238,238)" d="M 0,0 L 0,0 Z"/>
       </g>
      </g>
      <g class="com.sun.star.drawing.PolyPolygonShape">
       <g id="id10">
        <rect class="BoundingBox" stroke="none" fill="none" x="10000" y="10000" width="3" height="3"/>
        <path fill="rgb(255,255,255)" stroke="none" d="M 10001,10001 L 10001,10001 Z"/>
        <path fill="none" stroke="rgb(238,238,238)" d="M 10001,10001 L 10001,10001 Z"/>
       </g>
      </g>
      <g class="com.sun.star.drawing.CustomShape">
       <g id="id11">
        <rect class="BoundingBox" stroke="none" fill="none" x="2300" y="4200" width="1002" height="1002"/>
        <g>
         <defs>
          <linearGradient id="gradient5" x1="2458" y1="4109" x2="3142" y2="5291" gradientUnits="userSpaceOnUse">
           <stop offset="0" style="stop-color:rgb(0,0,0)"/>
           <stop offset="0.5" style="stop-color:rgb(51,51,51)"/>
           <stop offset="1" style="stop-color:rgb(0,0,0)"/>
          </linearGradient>
         </defs>
         <path style="fill:url(#gradient5)" d="M 2800,4200 L 2852,4203 2903,4210 2951,4222 2998,4238 3041,4259 3083,4284 3121,4312 3156,4344 3188,4379 3216,4417 3241,4459 3262,4502 3278,4549 3290,4597 3297,4648 3300,4700 3297,4752 3290,4803 3278,4851 3262,4898 3241,4941 3216,4983 3188,5021 3156,5056 3121,5088 3083,5116 3041,5141 2998,5162 2951,5178 2903,5190 2852,5197 2800,5200 2748,5197 2697,5190 2649,5178 2602,5162 2559,5141 2517,5116 2479,5088 2444,5056 2412,5021 2384,4983 2359,4941 2338,4898 2322,4851 2310,4803 2303,4752 2300,4700 2303,4648 2310,4597 2322,4549 2338,4502 2359,4459 2384,4417 2412,4379 2444,4344 2479,4312 2517,4284 2559,4259 2602,4238 2649,4222 2697,4210 2748,4203 2800,4200 Z"/>
        </g>
       </g>
      </g>
      <g class="com.sun.star.drawing.CustomShape">
       <g id="id12">
        <rect class="BoundingBox" stroke="none" fill="none" x="3400" y="5400" width="1002" height="1002"/>
        <g>
         <defs>
          <linearGradient id="gradient6" x1="3558" y1="5309" x2="4242" y2="6491" gradientUnits="userSpaceOnUse">
           <stop offset="0" style="stop-color:rgb(0,0,0)"/>
           <stop offset="0.5" style="stop-color:rgb(51,51,51)"/>
           <stop offset="1" style="stop-color:rgb(0,0,0)"/>
          </linearGradient>
         </defs>
         <path style="fill:url(#gradient6)" d="M 3900,5400 L 3952,5403 4003,5410 4051,5422 4098,5438 4141,5459 4183,5484 4221,5512 4256,5544 4288,5579 4316,5617 4341,5659 4362,5702 4378,5749 4390,5797 4397,5848 4400,5900 4397,5952 4390,6003 4378,6051 4362,6098 4341,6141 4316,6183 4288,6221 4256,6256 4221,6288 4183,6316 4141,6341 4098,6362 4051,6378 4003,6390 3952,6397 3900,6400 3848,6397 3797,6390 3749,6378 3702,6362 3659,6341 3617,6316 3579,6288 3544,6256 3512,6221 3484,6183 3459,6141 3438,6098 3422,6051 3410,6003 3403,5952 3400,5900 3403,5848 3410,5797 3422,5749 3438,5702 3459,5659 3484,5617 3512,5579 3544,5544 3579,5512 3617,5484 3659,5459 3702,5438 3749,5422 3797,5410 3848,5403 3900,5400 Z"/>
        </g>
       </g>
      </g>
      <g class="com.sun.star.drawing.CustomShape">
       <g id="id13">
        <rect class="BoundingBox" stroke="none" fill="none" x="4500" y="6600" width="1002" height="1002"/>
        <g>
         <defs>
          <linearGradient id="gradient7" x1="4658" y1="6509" x2="5342" y2="7691" gradientUnits="userSpaceOnUse">
           <stop offset="0" style="stop-color:rgb(0,0,0)"/>
           <stop offset="0.5" style="stop-color:rgb(51,51,51)"/>
           <stop offset="1" style="stop-color:rgb(0,0,0)"/>
          </linearGradient>
         </defs>
         <path style="fill:url(#gradient7)" d="M 5000,6600 L 5052,6603 5103,6610 5151,6622 5198,6638 5241,6659 5283,6684 5321,6712 5356,6744 5388,6779 5416,6817 5441,6859 5462,6902 5478,6949 5490,6997 5497,7048 5500,7100 5497,7152 5490,7203 5478,7251 5462,7298 5441,7341 5416,7383 5388,7421 5356,7456 5321,7488 5283,7516 5241,7541 5198,7562 5151,7578 5103,7590 5052,7597 5000,7600 4948,7597 4897,7590 4849,7578 4802,7562 4759,7541 4717,7516 4679,7488 4644,7456 4612,7421 4584,7383 4559,7341 4538,7298 4522,7251 4510,7203 4503,7152 4500,7100 4503,7048 4510,6997 4522,6949 4538,6902 4559,6859 4584,6817 4612,6779 4644,6744 4679,6712 4717,6684 4759,6659 4802,6638 4849,6622 4897,6610 4948,6603 5000,6600 Z"/>
        </g>
       </g>
      </g>
     </g>
    </g>
   </g>
  </g>
 </g>
</svg>