<?xml version="1.0" encoding="UTF-8"?>
<!DOCTYPE svg PUBLIC "-//W3C//DTD SVG 1.1//EN" "http://www.w3.org/Graphics/SVG/1.1/DTD/svg11.dtd">
<svg version="1.2" width="100mm" height="100mm" viewBox="0 0 10000 10000" preserveAspectRatio="xMidYMid" fill-rule="evenodd" stroke-width="28.222" stroke-linejoin="round" xmlns="http://www.w3.org/2000/svg" xmlns:ooo="http://xml.openoffice.org/svg/export" xmlns:xlink="http://www.w3.org/1999/xlink" xmlns:presentation="http://sun.com/xmlns/staroffice/presentation" xmlns:smil="http://www.w3.org/2001/SMIL20/" xmlns:anim="urn:oasis:names:tc:opendocument:xmlns:animation:1.0" xml:space="preserve">
 <defs class="ClipPathGroup">
  <clipPath id="presentation_clip_path" clipPathUnits="userSpaceOnUse">
   <rect x="0" y="0" width="10000" height="10000"/>
  </clipPath>
  <clipPath id="presentation_clip_path_shrink" clipPathUnits="userSpaceOnUse">
   <rect x="10" y="10" width="9980" height="9980"/>
  </clipPath>
 </defs>
 <defs class="TextShapeIndex">
  <g ooo:slide="id1" ooo:id-list="id3 id4 id5 id6 id7"/>
 </defs>
 <defs class="EmbeddedBulletChars">
  <g id="bullet-char-template-57356" transform="scale(0.00048828125,-0.00048828125)">
   <path d="M 580,1141 L 1163,571 580,0 -4,571 580,1141 Z"/>
  </g>
  <g id="bullet-char-template-57354" transform="scale(0.00048828125,-0.00048828125)">
   <path d="M 8,1128 L 1137,1128 1137,0 8,0 8,1128 Z"/>
  </g>
  <g id="bullet-char-template-10146" transform="scale(0.00048828125,-0.00048828125)">
   <path d="M 174,0 L 602,739 174,1481 1456,739 174,0 Z M 1358,739 L 309,1346 659,739 1358,739 Z"/>
  </g>
  <g id="bullet-char-template-10132" transform="scale(0.00048828125,-0.00048828125)">
   <path d="M 2015,739 L 1276,0 717,0 1260,543 174,543 174,936 1260,936 717,1481 1274,1481 2015,739 Z"/>
  </g>
  <g id="bullet-char-template-10007" transform="scale(0.00048828125,-0.00048828125)">
   <path d="M 0,-2 C -7,14 -16,27 -25,37 L 356,567 C 262,823 215,952 215,954 215,979 228,992 255,992 264,992 276,990 289,987 310,991 331,999 354,1012 L 381,999 492,748 772,1049 836,1024 860,1049 C 881,1039 901,1025 922,1006 886,937 835,863 770,784 769,783 710,716 594,584 L 774,223 C 774,196 753,168 711,139 L 727,119 C 717,90 699,76 672,76 641,76 570,178 457,381 L 164,-76 C 142,-110 111,-127 72,-127 30,-127 9,-110 8,-76 1,-67 -2,-52 -2,-32 -2,-23 -1,-13 0,-2 Z"/>
  </g>
  <g id="bullet-char-template-10004" transform="scale(0.00048828125,-0.00048828125)">
   <path d="M 285,-33 C 182,-33 111,30 74,156 52,228 41,333 41,471 41,549 55,616 82,672 116,743 169,778 240,778 293,778 328,747 346,684 L 369,508 C 377,444 397,411 428,410 L 1163,1116 C 1174,1127 1196,1133 1229,1133 1271,1133 1292,1118 1292,1087 L 1292,965 C 1292,929 1282,901 1262,881 L 442,47 C 390,-6 338,-33 285,-33 Z"/>
  </g>
  <g id="bullet-char-template-9679" transform="scale(0.00048828125,-0.00048828125)">
   <path d="M 813,0 C 632,0 489,54 383,161 276,268 223,411 223,592 223,773 276,916 383,1023 489,1130 632,1184 813,1184 992,1184 1136,1130 1245,1023 1353,916 1407,772 1407,592 1407,412 1353,268 1245,161 1136,54 992,0 813,0 Z"/>
  </g>
  <g id="bullet-char-template-8226" transform="scale(0.00048828125,-0.00048828125)">
   <path d="M 346,457 C 273,457 209,483 155,535 101,586 74,649 74,723 74,796 101,859 155,911 209,963 273,989 346,989 419,989 480,963 531,910 582,859 608,796 608,723 608,648 583,586 532,535 482,483 420,457 346,457 Z"/>
  </g>
  <g id="bullet-char-template-8211" transform="scale(0.00048828125,-0.00048828125)">
   <path d="M -4,459 L 1135,459 1135,606 -4,606 -4,459 Z"/>
  </g>
  <g id="bullet-char-template-61548" transform="scale(0.00048828125,-0.00048828125)">
   <path d="M 173,740 C 173,903 231,1043 346,1159 462,1274 601,1332 765,1332 928,1332 1067,1274 1183,1159 1299,1043 1357,903 1357,740 1357,577 1299,437 1183,322 1067,206 928,148 765,148 601,148 462,206 346,322 231,437 173,577 173,740 Z"/>
  </g>
 </defs>
 <defs class="TextEmbeddedBitmaps"/>
 <g>
  <g id="id2" class="Master_Slide">
   <g id="bg-id2" class="Background"/>
   <g id="bo-id2" class="BackgroundObjects"/>
  </g>
 </g>
 <g class="SlideGroup">
  <g>
   <g id="container-id1">
    <g id="id1" class="Slide" clip-path="url(#presentation_clip_path)">
     <g class="Page">
      <g class="com.sun.star.drawing.CustomShape">
       <g id="id3">
        <rect class="BoundingBox" stroke="none" fill="none" x="-1" y="-1" width="10004" height="10004"/>
        <g>
         <defs>
          <linearGradient id="gradient1" x1="1585" y1="-915" x2="8415" y2="10915" gradientUnits="userSpaceOnUse">
           <stop offset="0" style="stop-color:rgb(255,255,255)"/>
           <stop offset="1" style="stop-color:rgb(238,238,238)"/>
          </linearGradient>
         </defs>
         <path style="fill:url(#gradient1)" d="M 5000,0 L 5523,25 6029,99 6514,218 6977,383 7416,589 7828,835 8211,1118 8563,1437 8882,1789 9165,2172 9411,2584 9617,3023 9782,3486 9901,3971 9975,4477 10000,5000 9975,5523 9901,6029 9782,6514 9617,6977 9411,7416 9165,7828 8882,8211 8563,8563 8211,8882 7828,9165 7416,9411 6977,9617 6514,9782 6029,9901 5523,9975 5000,10000 4477,9975 3971,9901 3486,9782 3023,9617 2584,9411 2172,9165 1789,8882 1437,8563 1118,8211 835,7828 589,7416 383,6977 218,6514 99,6029 25,5523 0,5000 25,4477 99,3971 218,3486 383,3023 589,2584 835,2172 1118,1789 1437,1437 1789,1118 2172,835 2584,589 3023,383 3486,218 3971,99 4477,25 5000,0 Z"/>
        </g>
        <path fill="none" stroke="rgb(238,238,238)" d="M 5000,0 C 7835,0 10000,2165 10000,5000 10000,7835 7835,10000 5000,10000 2165,10000 0,7835 0,5000 0,2165 2165,0 5000,0 Z"/>
        <path fill="none" stroke="rgb(238,238,238)" d="M 0,0 L 0,0 Z"/>
        <path fill="none" stroke="rgb(238,238,238)" d="M 10001,10001 L 10001,10001 Z"/>
       </g>
      </g>
      <g class="com.sun.star.drawing.CustomShape">
       <g id="id4">
        <rect class="BoundingBox" stroke="none" fill="none" x="599" y="3500" width="5003" height="5002"/>
        <g>
         <defs>
          <linearGradient id="gradient2" x1="1392" y1="3043" x2="4808" y2="8957" gradientUnits="userSpaceOnUse">
           <stop offset="0" style="stop-color:rgb(0,89,157)"/>
           <stop offset="1" style="stop-color:rgb(0,61,115)"/>
          </linearGradient>
         </defs>
         <path style="fill:url(#gradient2)" d="M 3100,3500 L 3362,3513 3614,3549 3857,3609 4088,3691 4308,3794 4514,3917 4705,4059 4881,4219 5041,4395 5183,4586 5306,4792 5409,5012 5491,5243 5551,5486 5587,5738 5600,6000 5587,6262 5551,6514 5491,6757 5409,6988 5306,7208 5183,7414 5041,7605 4881,7781 4705,7941 4514,8083 4308,8206 4088,8309 3857,8391 3614,8451 3362,8487 3100,8500 2838,8487 2586,8451 2343,8391 2112,8309 1892,8206 1686,8083 1495,7941 1319,7781 1159,7605 1017,7414 894,7208 791,6988 709,6757 649,6514 613,6262 600,6000 613,5738 649,5486 709,5243 791,5012 894,4792 1017,4586 1159,4395 1319,4219 1495,4059 1686,3917 1892,3794 2112,3691 2343,3609 2586,3549 2838,3513 3100,3500 Z M 3099,3967 L 3312,3977 3517,4007 3714,4056 3903,4123 4081,4206 4248,4306 4404,4421 4547,4551 4677,4694 4792,4850 4892,5017 4976,5196 5042,5384 5091,5581 5121,5786 5131,5999 5121,6212 5091,6417 5042,6614 4976,6803 4892,6981 4792,7148 4677,7304 4547,7447 4404,7577 4248,7692 4081,7792 3903,7876 3714,7942 3517,7991 3312,8021 3099,8031 2886,8021 2681,7991 2484,7942 2295,7876 2117,7792 1950,7692 1794,7577 1651,7447 1521,7304 1406,7148 1306,6981 1223,6803 1156,6614 1107,6417 1077,6212 1067,5999 1077,5786 1107,5581 1156,5384 1223,5196 1306,5017 1406,4850 1521,4694 1651,4551 1794,4421 1950,4306 2117,4206 2295,4123 2484,4056 2681,4007 2886,3977 3099,3967 Z"/>
        </g>
       </g>
      </g>
      <g class="com.sun.star.drawing.PolyPolygonShape">
       <g id="id5">
        <rect class="BoundingBox" stroke="none" fill="none" x="5800" y="2100" width="2801" height="3801"/>
        <g>
         <defs>
          <linearGradient id="gradient3" x1="6243" y1="1843" x2="8157" y2="5157" gradientUnits="userSpaceOnUse">
           <stop offset="0" style="stop-color:rgb(0,89,157)"/>
           <stop offset="1" style="stop-color:rgb(0,61,115)"/>
          </linearGradient>
         </defs>
         <path style="fill:url(#gradient3)" d="M 8300,2100 L 6200,4199 6200,3100 5800,3500 5800,4900 7200,4900 7600,4500 6500,4499 8600,2400 8300,2100 Z"/>
        </g>
       </g>
      </g>
      <g class="com.sun.star.drawing.PolyPolygonShape">
       <g id="id6">
        <rect class="BoundingBox" stroke="none" fill="none" x="5999" y="2700" width="3402" height="4401"/>
        <g>
         <defs>
          <linearGradient id="gradient4" x1="6539" y1="3389" x2="8861" y2="7411" gradientUnits="userSpaceOnUse">
           <stop offset="0" style="stop-color:rgb(0,89,157)"/>
           <stop offset="1" style="stop-color:rgb(0,61,115)"/>
          </linearGradient>
         </defs>
         <path style="fill:url(#gradient4)" d="M 6300,7100 L 9000,4401 9000,5400 9400,5000 9400,3700 8000,3700 7600,4100 8700,4101 6000,6800 6300,7100 Z"/>
        </g>
       </g>
      </g>
      <g class="com.sun.star.drawing.ClosedBezierShape">
       <g id="id7">
        <rect class="BoundingBox" stroke="none" fill="none" x="2300" y="4700" width="1685" height="2502"/>
        <path fill="rgb(0,0,0)" stroke="none" d="M 3912,5279 C 3912,5448 3861,5582 3760,5682 3659,5782 3535,5850 3387,5886 L 3387,5896 C 3580,5921 3728,5982 3830,6077 3932,6172 3983,6299 3983,6458 3983,6599 3949,6725 3879,6838 3810,6950 3703,7039 3559,7103 3415,7168 3229,7200 3002,7200 2739,7200 2505,7156 2300,7067 L 2300,6632 C 2405,6684 2514,6723 2628,6751 2741,6778 2848,6791 2948,6791 3132,6791 3261,6760 3334,6696 3408,6633 3445,6543 3445,6427 3445,6362 3428,6305 3394,6257 3360,6210 3300,6174 3215,6150 3130,6126 3011,6114 2859,6114 L 2675,6114 2675,5719 2863,5719 C 3012,5719 3127,5705 3205,5677 3283,5648 3337,5610 3365,5561 3393,5512 3408,5456 3408,5392 3408,5305 3381,5238 3328,5189 3274,5140 3185,5116 3060,5116 2944,5116 2843,5136 2757,5177 2671,5218 2599,5257 2542,5293 L 2304,4938 C 2399,4870 2511,4814 2639,4768 2768,4723 2920,4700 3098,4700 3347,4700 3546,4751 3692,4852 3839,4953 3912,5095 3912,5279 Z"/>
       </g>
      </g>
     </g>
    </g>
   </g>
  </g>
 </g>
</svg>