<?xml version="1.0" standalone="no"?>
<!DOCTYPE svg PUBLIC "-//W3C//DTD SVG 20010904//EN"
 "http://www.w3.org/TR/2001/REC-SVG-20010904/DTD/svg10.dtd">
<svg version="1.0" xmlns="http://www.w3.org/2000/svg"
 width="700.000000pt" height="700.000000pt" viewBox="0 0 700.000000 700.000000"
 preserveAspectRatio="xMidYMid meet">
<metadata>
Created by potrace 1.11, written by Peter Selinger 2001-2013
</metadata>
<g transform="translate(0.000000,700.000000) scale(0.100000,-0.100000)"
fill="#000000" stroke="none">
<path d="M5493 6049 l-663 -660 0 383 0 383 -140 -140 -140 -140 0 -487 0
-488 488 0 487 0 140 140 140 140 -385 0 -385 0 665 665 665 665 -100 100
c-55 55 -102 100 -105 100 -3 0 -303 -298 -667 -661z"/>
<path d="M2520 5030 c-926 -71 -1667 -690 -1889 -1578 -49 -193 -64 -324 -64
-547 0 -137 6 -236 17 -315 143 -960 836 -1653 1796 -1796 157 -23 473 -23
630 0 477 72 882 271 1203 593 321 321 522 728 593 1203 18 121 24 462 11 550
l-8 46 666 178 c366 98 669 176 674 174 4 -1 -67 -133 -160 -293 -92 -159
-168 -293 -169 -296 0 -3 84 17 188 44 l187 50 223 388 c123 213 224 392 223
396 0 4 -189 117 -420 250 l-419 243 -174 -46 c-95 -25 -179 -49 -186 -53 -7
-4 117 -82 314 -196 259 -149 323 -191 308 -197 -16 -6 -371 -102 -1207 -325
-53 -14 -99 -24 -100 -22 -2 2 -20 56 -41 120 -246 761 -896 1300 -1701 1413
-139 19 -359 26 -495 16z m475 -296 c681 -100 1235 -568 1456 -1226 18 -54 30
-100 28 -102 -4 -4 -246 -71 -460 -127 l-36 -9 37 -137 c20 -75 42 -139 47
-140 5 -2 112 24 238 57 125 34 229 59 232 56 13 -13 4 -378 -12 -481 -57
-371 -206 -696 -440 -958 -352 -396 -834 -608 -1385 -609 -523 -1 -967 178
-1321 531 -283 284 -444 605 -515 1026 -23 135 -22 441 0 585 118 745 633
1316 1355 1500 232 59 521 71 776 34z"/>
<path d="M1841 4039 c-53 -17 -76 -32 -127 -83 -54 -54 -65 -72 -85 -135 -84
-278 162 -526 438 -442 155 46 255 196 240 359 -22 234 -238 373 -466 301z"/>
<path d="M2611 3199 c-53 -17 -76 -32 -127 -83 -54 -54 -65 -72 -85 -135 -84
-278 162 -526 438 -442 155 46 255 196 240 359 -22 234 -238 373 -466 301z"/>
<path d="M3381 2359 c-53 -17 -76 -32 -127 -83 -54 -54 -65 -72 -85 -135 -66
-220 76 -438 300 -458 269 -25 459 247 347 493 -76 167 -252 240 -435 183z"/>
</g>
</svg>
